Coordinates
version=1
nRows=6
nColumns=63
inDegrees=yes

Units are S.I. units (second, meters, Newtons, ...)
If the header above contains a line with 'inDegrees', this indicates whether rotational values are in degrees (yes) or radians (no).

endheader
time	pelvis_tilt	pelvis_list	pelvis_rotation	pelvis_tx	pelvis_ty	pelvis_tz	hip_flexion_r	hip_adduction_r	hip_rotation_r	knee_angle_r	knee_angle_r_beta	ankle_angle_r	subtalar_angle_r	mtp_angle_r	hip_flexion_l	hip_adduction_l	hip_rotation_l	knee_angle_l	knee_angle_l_beta	ankle_angle_l	subtalar_angle_l	mtp_angle_l	L5_S1_Flex_Ext	L5_S1_Lat_Bending	L5_S1_axial_rotation	L4_L5_Flex_Ext	L4_L5_Lat_Bending	L4_L5_axial_rotation	L3_L4_Flex_Ext	L3_L4_Lat_Bending	L3_L4_axial_rotation	L2_L3_Flex_Ext	L2_L3_Lat_Bending	L2_L3_axial_rotation	L1_L2_Flex_Ext	L1_L2_Lat_Bending	L1_L2_axial_rotation	L1_T12_Flex_Ext	L1_T12_Lat_Bending	L1_T12_axial_rotation	Abs_r3	Abs_r2	Abs_r1	Abs_t1	Abs_t2	neck_flexion	neck_bending	neck_rotation	arm_flex_r	arm_add_r	arm_rot_r	elbow_flex_r	pro_sup_r	wrist_flex_r	wrist_dev_r	arm_flex_l	arm_add_l	arm_rot_l	elbow_flex_l	pro_sup_l	wrist_flex_l	wrist_dev_l
0.000000	-0.314256	-3.293450	99.847881	0.258606	0.803072	0.819323	8.316326	0.029030	-9.715054	14.525264	0.253514	36.508237	9.892826	0.000000	6.498709	1.417186	7.795578	8.911120	0.155528	31.028639	-2.969415	0.000000	0.191625	0.255635	-0.974659	0.355867	0.339994	-1.035576	0.314821	0.621550	-1.035576	0.219008	0.621550	-0.852827	0.177943	0.521290	-0.791911	0.109495	0.395978	-0.730994	1.368760	2.891790	-5.420763	0.000000	0.000000	25.779954	1.763396	0.761287	7.884196	-10.551695	34.458428	63.864465	77.833965	8.332959	2.240033	4.675606	-7.926741	27.929808	68.174719	71.198899	-4.488135	-0.000521
0.020833	-0.481697	-3.066062	100.310745	0.258261	0.803810	0.818668	8.012648	-0.135701	-9.655876	14.597906	0.254782	36.744532	9.449194	0.000000	6.517226	1.459362	5.900716	9.301150	0.162336	31.805555	-0.313951	0.000000	0.176500	0.234300	-0.976942	0.327779	0.311619	-1.038001	0.289972	0.569677	-1.038001	0.201722	0.569677	-0.854824	0.163898	0.477785	-0.793765	0.100852	0.362931	-0.732706	1.260725	2.650449	-5.433457	0.000000	0.000000	25.261847	1.820137	0.459485	7.597449	-10.524007	34.073795	63.825462	75.899198	8.792124	3.090902	5.384880	-8.326518	29.422391	68.151344	69.560854	-3.729661	0.398918
0.041667	-0.620939	-2.894910	100.642160	0.258068	0.804325	0.818204	7.795879	-0.269775	-9.551314	14.675413	0.256134	36.942872	9.078907	0.000000	6.578766	1.485039	4.254335	9.692930	0.169174	32.466368	1.905797	0.000000	0.165592	0.216470	-0.970854	0.307520	0.287905	-1.031532	0.272051	0.526325	-1.031532	0.189255	0.526325	-0.849497	0.153768	0.441425	-0.788819	0.094619	0.335312	-0.728140	1.182805	2.448751	-5.399597	0.000000	0.000000	24.899035	1.819247	0.219250	7.297842	-10.520316	33.739678	63.905824	74.113848	9.205295	3.885280	5.964405	-8.690034	30.653964	68.223655	68.120660	-3.078042	0.730580
0.062500	-0.734530	-2.774503	100.854512	0.258012	0.804641	0.817909	7.657278	-0.375882	-9.406564	14.756735	0.257554	37.106278	8.776098	0.000000	6.677224	1.496158	2.838989	10.082532	0.175973	33.019979	3.724773	0.000000	0.158466	0.201793	-0.957263	0.294286	0.268384	-1.017092	0.260343	0.490638	-1.017092	0.181110	0.490638	-0.837605	0.147151	0.411495	-0.777776	0.090547	0.312577	-0.717947	1.131904	2.282717	-5.324010	0.000000	0.000000	24.675391	1.768545	0.033017	6.989210	-10.537738	33.452964	64.089589	72.475623	9.575856	4.625911	6.423473	-9.018028	31.643685	68.380350	66.866312	-2.525234	1.004857
0.083333	-0.825015	-2.699350	100.960190	0.258076	0.804780	0.817763	7.588101	-0.456714	-9.226820	14.840826	0.259021	37.237774	8.534900	0.000000	6.806495	1.494662	1.637234	10.466030	0.182667	33.475285	5.177924	0.000000	0.154689	0.189916	-0.937038	0.287273	0.252589	-0.995603	0.254138	0.461762	-0.995603	0.176794	0.461762	-0.819908	0.143644	0.387277	-0.761343	0.088389	0.294180	-0.702778	1.104927	2.148370	-5.211524	0.000000	0.000000	24.574788	1.675850	-0.106781	6.675384	-10.573385	33.210537	64.360796	70.982233	9.907188	5.315541	6.771372	-9.311240	32.410710	68.610128	65.785805	-2.063194	1.232141
0.104167	-0.894942	-2.663959	100.971582	0.258247	0.804767	0.817746	7.579605	-0.514960	-9.017276	14.926635	0.260519	37.340380	8.349447	0.000000	6.960473	1.482496	0.631624	10.839495	0.189185	33.841185	6.300196	0.000000	0.153828	0.180489	-0.911046	0.285674	0.240051	-0.967987	0.252724	0.438842	-0.967987	0.175810	0.438842	-0.797166	0.142845	0.368054	-0.740225	0.087897	0.279578	-0.683285	1.098779	2.041730	-5.066967	0.000000	0.000000	24.581100	1.548979	-0.207710	6.360199	-10.624373	33.009287	64.703485	69.631384	10.202675	5.956914	7.017392	-9.570410	32.974197	68.901689	64.867137	-1.683875	1.422823
